# xmcd
#
# Track frame offsets:
#	150
#	17426
#	31033
#	44223
#	59275
#	72660
#	89185
#	107160
#	122770
#	140750
#	155597
#	171118
#	182995
#	196567
#
# Disc length: 2828
#
# Revision: 2
# Processed by: cddbd v1.5.1PL0 Copyright (c) Steve Scherf et al.
# Submitted via: audiograbber 1.82.02
# Normalized: r1:DSETVAR1
#
DISCID=cc0b0a0e
DTITLE=Various Artist - Hot Hits Country Vol. 85
DYEAR=1998
DGENRE=Country
TTITLE0=Alan Jackson - Right On The Money
TTITLE1=Trisha Yearwood - Powerful Thing
TTITLE2=Reba McEntire - Wrong Night
TTITLE3=Billy Ray Cyrus - Busy Man
TTITLE4=Alabama - Keepin' Up
TTITLE5=The Kinleys - Somebody's Out There Watching
TTITLE6=Mark Chesnutt - I Don't Want To Miss A Thing
TTITLE7=Tracy Byrd - When Mama Ain't Happy
TTITLE8=Chad Brock - Ordinary Life
TTITLE9=Keith Harling - Write It In Stone
TTITLE10=Shannon Brown - I Won't Lie
TTITLE11=Jon Randall - She Don't Believe In Fairy Tales
TTITLE12=Gary Allan - I'll Take Today
TTITLE13=Ricochet - Can't Stop Thinkin' 'Bout That
EXTD=
EXTT0=
EXTT1=
EXTT2=
EXTT3=
EXTT4=
EXTT5=
EXTT6=
EXTT7=
EXTT8=
EXTT9=
EXTT10=
EXTT11=
EXTT12=
EXTT13=
PLAYORDER=
